<?xml version="1.0" encoding="utf-8" standalone="no"?>
<!DOCTYPE svg PUBLIC "-//W3C//DTD SVG 1.1//EN"
  "http://www.w3.org/Graphics/SVG/1.1/DTD/svg11.dtd">
<svg xmlns:xlink="http://www.w3.org/1999/xlink" width="485.615pt" height="228.675469pt" viewBox="0 0 485.615 228.675469" xmlns="http://www.w3.org/2000/svg" version="1.1">
 <metadata>
  <rdf:RDF xmlns:dc="http://purl.org/dc/elements/1.1/" xmlns:cc="http://creativecommons.org/ns#" xmlns:rdf="http://www.w3.org/1999/02/22-rdf-syntax-ns#">
   <cc:Work>
    <dc:type rdf:resource="http://purl.org/dc/dcmitype/StillImage"/>
    <dc:date>2023-06-26T15:54:50.220080</dc:date>
    <dc:format>image/svg+xml</dc:format>
    <dc:creator>
     <cc:Agent>
      <dc:title>Matplotlib v3.7.1, https://matplotlib.org/</dc:title>
     </cc:Agent>
    </dc:creator>
   </cc:Work>
  </rdf:RDF>
 </metadata>
 <defs>
  <style type="text/css">*{stroke-linejoin: round; stroke-linecap: butt}</style>
 </defs>
 <g id="figure_1">
  <g id="patch_1">
   <path d="M 0 228.675469 
L 485.615 228.675469 
L 485.615 0 
L 0 0 
z
" style="fill: #ffffff"/>
  </g>
  <g id="axes_1">
   <g id="patch_2">
    <path d="M 32.015 67.958906 
L 478.415 67.958906 
L 478.415 12.518906 
L 32.015 12.518906 
z
" style="fill: #ffffff"/>
   </g>
   <g id="matplotlib.axis_1">
    <g id="xtick_1">
     <g id="line2d_1">
      <defs>
       <path id="mc147c2c439" d="M 0 0 
L 0 3.5 
" style="stroke: #999999; stroke-width: 0.8"/>
      </defs>
      <g>
       <use xlink:href="#mc147c2c439" x="57.508706" y="67.958906" style="fill: #999999; stroke: #999999; stroke-width: 0.8"/>
      </g>
     </g>
     <g id="text_1">
      <!-- CNN -->
      <g style="fill: #262626" transform="translate(61.371831 105.682344) rotate(-90) scale(0.14 -0.14)">
       <defs>
        <path id="DejaVuSans-43" d="M 4122 4306 
L 4122 3641 
Q 3803 3938 3442 4084 
Q 3081 4231 2675 4231 
Q 1875 4231 1450 3742 
Q 1025 3253 1025 2328 
Q 1025 1406 1450 917 
Q 1875 428 2675 428 
Q 3081 428 3442 575 
Q 3803 722 4122 1019 
L 4122 359 
Q 3791 134 3420 21 
Q 3050 -91 2638 -91 
Q 1578 -91 968 557 
Q 359 1206 359 2328 
Q 359 3453 968 4101 
Q 1578 4750 2638 4750 
Q 3056 4750 3426 4639 
Q 3797 4528 4122 4306 
z
" transform="scale(0.015625)"/>
        <path id="DejaVuSans-4e" d="M 628 4666 
L 1478 4666 
L 3547 763 
L 3547 4666 
L 4159 4666 
L 4159 0 
L 3309 0 
L 1241 3903 
L 1241 0 
L 628 0 
L 628 4666 
z
" transform="scale(0.015625)"/>
       </defs>
       <use xlink:href="#DejaVuSans-43"/>
       <use xlink:href="#DejaVuSans-4e" x="69.824219"/>
       <use xlink:href="#DejaVuSans-4e" x="144.628906"/>
      </g>
     </g>
    </g>
    <g id="xtick_2">
     <g id="line2d_2">
      <g>
       <use xlink:href="#mc147c2c439" x="78.319895" y="67.958906" style="fill: #999999; stroke: #999999; stroke-width: 0.8"/>
      </g>
     </g>
     <g id="text_2">
      <!-- Transformer -->
      <g style="fill: #262626" transform="translate(82.18302 158.956719) rotate(-90) scale(0.14 -0.14)">
       <defs>
        <path id="DejaVuSans-54" d="M -19 4666 
L 3928 4666 
L 3928 4134 
L 2272 4134 
L 2272 0 
L 1638 0 
L 1638 4134 
L -19 4134 
L -19 4666 
z
" transform="scale(0.015625)"/>
        <path id="DejaVuSans-72" d="M 2631 2963 
Q 2534 3019 2420 3045 
Q 2306 3072 2169 3072 
Q 1681 3072 1420 2755 
Q 1159 2438 1159 1844 
L 1159 0 
L 581 0 
L 581 3500 
L 1159 3500 
L 1159 2956 
Q 1341 3275 1631 3429 
Q 1922 3584 2338 3584 
Q 2397 3584 2469 3576 
Q 2541 3569 2628 3553 
L 2631 2963 
z
" transform="scale(0.015625)"/>
        <path id="DejaVuSans-61" d="M 2194 1759 
Q 1497 1759 1228 1600 
Q 959 1441 959 1056 
Q 959 750 1161 570 
Q 1363 391 1709 391 
Q 2188 391 2477 730 
Q 2766 1069 2766 1631 
L 2766 1759 
L 2194 1759 
z
M 3341 1997 
L 3341 0 
L 2766 0 
L 2766 531 
Q 2569 213 2275 61 
Q 1981 -91 1556 -91 
Q 1019 -91 701 211 
Q 384 513 384 1019 
Q 384 1609 779 1909 
Q 1175 2209 1959 2209 
L 2766 2209 
L 2766 2266 
Q 2766 2663 2505 2880 
Q 2244 3097 1772 3097 
Q 1472 3097 1187 3025 
Q 903 2953 641 2809 
L 641 3341 
Q 956 3463 1253 3523 
Q 1550 3584 1831 3584 
Q 2591 3584 2966 3190 
Q 3341 2797 3341 1997 
z
" transform="scale(0.015625)"/>
        <path id="DejaVuSans-6e" d="M 3513 2113 
L 3513 0 
L 2938 0 
L 2938 2094 
Q 2938 2591 2744 2837 
Q 2550 3084 2163 3084 
Q 1697 3084 1428 2787 
Q 1159 2491 1159 1978 
L 1159 0 
L 581 0 
L 581 3500 
L 1159 3500 
L 1159 2956 
Q 1366 3272 1645 3428 
Q 1925 3584 2291 3584 
Q 2894 3584 3203 3211 
Q 3513 2838 3513 2113 
z
" transform="scale(0.015625)"/>
        <path id="DejaVuSans-73" d="M 2834 3397 
L 2834 2853 
Q 2591 2978 2328 3040 
Q 2066 3103 1784 3103 
Q 1356 3103 1142 2972 
Q 928 2841 928 2578 
Q 928 2378 1081 2264 
Q 1234 2150 1697 2047 
L 1894 2003 
Q 2506 1872 2764 1633 
Q 3022 1394 3022 966 
Q 3022 478 2636 193 
Q 2250 -91 1575 -91 
Q 1294 -91 989 -36 
Q 684 19 347 128 
L 347 722 
Q 666 556 975 473 
Q 1284 391 1588 391 
Q 1994 391 2212 530 
Q 2431 669 2431 922 
Q 2431 1156 2273 1281 
Q 2116 1406 1581 1522 
L 1381 1569 
Q 847 1681 609 1914 
Q 372 2147 372 2553 
Q 372 3047 722 3315 
Q 1072 3584 1716 3584 
Q 2034 3584 2315 3537 
Q 2597 3491 2834 3397 
z
" transform="scale(0.015625)"/>
        <path id="DejaVuSans-66" d="M 2375 4863 
L 2375 4384 
L 1825 4384 
Q 1516 4384 1395 4259 
Q 1275 4134 1275 3809 
L 1275 3500 
L 2222 3500 
L 2222 3053 
L 1275 3053 
L 1275 0 
L 697 0 
L 697 3053 
L 147 3053 
L 147 3500 
L 697 3500 
L 697 3744 
Q 697 4328 969 4595 
Q 1241 4863 1831 4863 
L 2375 4863 
z
" transform="scale(0.015625)"/>
        <path id="DejaVuSans-6f" d="M 1959 3097 
Q 1497 3097 1228 2736 
Q 959 2375 959 1747 
Q 959 1119 1226 758 
Q 1494 397 1959 397 
Q 2419 397 2687 759 
Q 2956 1122 2956 1747 
Q 2956 2369 2687 2733 
Q 2419 3097 1959 3097 
z
M 1959 3584 
Q 2709 3584 3137 3096 
Q 3566 2609 3566 1747 
Q 3566 888 3137 398 
Q 2709 -91 1959 -91 
Q 1206 -91 779 398 
Q 353 888 353 1747 
Q 353 2609 779 3096 
Q 1206 3584 1959 3584 
z
" transform="scale(0.015625)"/>
        <path id="DejaVuSans-6d" d="M 3328 2828 
Q 3544 3216 3844 3400 
Q 4144 3584 4550 3584 
Q 5097 3584 5394 3201 
Q 5691 2819 5691 2113 
L 5691 0 
L 5113 0 
L 5113 2094 
Q 5113 2597 4934 2840 
Q 4756 3084 4391 3084 
Q 3944 3084 3684 2787 
Q 3425 2491 3425 1978 
L 3425 0 
L 2847 0 
L 2847 2094 
Q 2847 2600 2669 2842 
Q 2491 3084 2119 3084 
Q 1678 3084 1418 2786 
Q 1159 2488 1159 1978 
L 1159 0 
L 581 0 
L 581 3500 
L 1159 3500 
L 1159 2956 
Q 1356 3278 1631 3431 
Q 1906 3584 2284 3584 
Q 2666 3584 2933 3390 
Q 3200 3197 3328 2828 
z
" transform="scale(0.015625)"/>
        <path id="DejaVuSans-65" d="M 3597 1894 
L 3597 1613 
L 953 1613 
Q 991 1019 1311 708 
Q 1631 397 2203 397 
Q 2534 397 2845 478 
Q 3156 559 3463 722 
L 3463 178 
Q 3153 47 2828 -22 
Q 2503 -91 2169 -91 
Q 1331 -91 842 396 
Q 353 884 353 1716 
Q 353 2575 817 3079 
Q 1281 3584 2069 3584 
Q 2775 3584 3186 3129 
Q 3597 2675 3597 1894 
z
M 3022 2063 
Q 3016 2534 2758 2815 
Q 2500 3097 2075 3097 
Q 1594 3097 1305 2825 
Q 1016 2553 972 2059 
L 3022 2063 
z
" transform="scale(0.015625)"/>
       </defs>
       <use xlink:href="#DejaVuSans-54"/>
       <use xlink:href="#DejaVuSans-72" x="46.333984"/>
       <use xlink:href="#DejaVuSans-61" x="87.447266"/>
       <use xlink:href="#DejaVuSans-6e" x="148.726562"/>
       <use xlink:href="#DejaVuSans-73" x="212.105469"/>
       <use xlink:href="#DejaVuSans-66" x="264.205078"/>
       <use xlink:href="#DejaVuSans-6f" x="299.410156"/>
       <use xlink:href="#DejaVuSans-72" x="360.591797"/>
       <use xlink:href="#DejaVuSans-6d" x="399.955078"/>
       <use xlink:href="#DejaVuSans-65" x="497.367188"/>
       <use xlink:href="#DejaVuSans-72" x="558.890625"/>
      </g>
     </g>
    </g>
    <g id="xtick_3">
     <g id="line2d_3">
      <g>
       <use xlink:href="#mc147c2c439" x="99.131084" y="67.958906" style="fill: #999999; stroke: #999999; stroke-width: 0.8"/>
      </g>
     </g>
     <g id="text_3">
      <!-- RNN -->
      <g style="fill: #262626" transform="translate(102.994209 105.634219) rotate(-90) scale(0.14 -0.14)">
       <defs>
        <path id="DejaVuSans-52" d="M 2841 2188 
Q 3044 2119 3236 1894 
Q 3428 1669 3622 1275 
L 4263 0 
L 3584 0 
L 2988 1197 
Q 2756 1666 2539 1819 
Q 2322 1972 1947 1972 
L 1259 1972 
L 1259 0 
L 628 0 
L 628 4666 
L 2053 4666 
Q 2853 4666 3247 4331 
Q 3641 3997 3641 3322 
Q 3641 2881 3436 2590 
Q 3231 2300 2841 2188 
z
M 1259 4147 
L 1259 2491 
L 2053 2491 
Q 2509 2491 2742 2702 
Q 2975 2913 2975 3322 
Q 2975 3731 2742 3939 
Q 2509 4147 2053 4147 
L 1259 4147 
z
" transform="scale(0.015625)"/>
       </defs>
       <use xlink:href="#DejaVuSans-52"/>
       <use xlink:href="#DejaVuSans-4e" x="69.482422"/>
       <use xlink:href="#DejaVuSans-4e" x="144.287109"/>
      </g>
     </g>
    </g>
    <g id="xtick_4">
     <g id="line2d_4">
      <g>
       <use xlink:href="#mc147c2c439" x="119.942273" y="67.958906" style="fill: #999999; stroke: #999999; stroke-width: 0.8"/>
      </g>
     </g>
     <g id="text_4">
      <!-- SVM -->
      <g style="fill: #262626" transform="translate(123.805398 105.502969) rotate(-90) scale(0.14 -0.14)">
       <defs>
        <path id="DejaVuSans-53" d="M 3425 4513 
L 3425 3897 
Q 3066 4069 2747 4153 
Q 2428 4238 2131 4238 
Q 1616 4238 1336 4038 
Q 1056 3838 1056 3469 
Q 1056 3159 1242 3001 
Q 1428 2844 1947 2747 
L 2328 2669 
Q 3034 2534 3370 2195 
Q 3706 1856 3706 1288 
Q 3706 609 3251 259 
Q 2797 -91 1919 -91 
Q 1588 -91 1214 -16 
Q 841 59 441 206 
L 441 856 
Q 825 641 1194 531 
Q 1563 422 1919 422 
Q 2459 422 2753 634 
Q 3047 847 3047 1241 
Q 3047 1584 2836 1778 
Q 2625 1972 2144 2069 
L 1759 2144 
Q 1053 2284 737 2584 
Q 422 2884 422 3419 
Q 422 4038 858 4394 
Q 1294 4750 2059 4750 
Q 2388 4750 2728 4690 
Q 3069 4631 3425 4513 
z
" transform="scale(0.015625)"/>
        <path id="DejaVuSans-56" d="M 1831 0 
L 50 4666 
L 709 4666 
L 2188 738 
L 3669 4666 
L 4325 4666 
L 2547 0 
L 1831 0 
z
" transform="scale(0.015625)"/>
        <path id="DejaVuSans-4d" d="M 628 4666 
L 1569 4666 
L 2759 1491 
L 3956 4666 
L 4897 4666 
L 4897 0 
L 4281 0 
L 4281 4097 
L 3078 897 
L 2444 897 
L 1241 4097 
L 1241 0 
L 628 0 
L 628 4666 
z
" transform="scale(0.015625)"/>
       </defs>
       <use xlink:href="#DejaVuSans-53"/>
       <use xlink:href="#DejaVuSans-56" x="63.476562"/>
       <use xlink:href="#DejaVuSans-4d" x="131.884766"/>
      </g>
     </g>
    </g>
    <g id="xtick_5">
     <g id="line2d_5">
      <g>
       <use xlink:href="#mc147c2c439" x="140.753462" y="67.958906" style="fill: #999999; stroke: #999999; stroke-width: 0.8"/>
      </g>
     </g>
     <g id="text_5">
      <!-- Probabilistic model -->
      <g style="fill: #262626" transform="translate(144.616587 207.597969) rotate(-90) scale(0.14 -0.14)">
       <defs>
        <path id="DejaVuSans-50" d="M 1259 4147 
L 1259 2394 
L 2053 2394 
Q 2494 2394 2734 2622 
Q 2975 2850 2975 3272 
Q 2975 3691 2734 3919 
Q 2494 4147 2053 4147 
L 1259 4147 
z
M 628 4666 
L 2053 4666 
Q 2838 4666 3239 4311 
Q 3641 3956 3641 3272 
Q 3641 2581 3239 2228 
Q 2838 1875 2053 1875 
L 1259 1875 
L 1259 0 
L 628 0 
L 628 4666 
z
" transform="scale(0.015625)"/>
        <path id="DejaVuSans-62" d="M 3116 1747 
Q 3116 2381 2855 2742 
Q 2594 3103 2138 3103 
Q 1681 3103 1420 2742 
Q 1159 2381 1159 1747 
Q 1159 1113 1420 752 
Q 1681 391 2138 391 
Q 2594 391 2855 752 
Q 3116 1113 3116 1747 
z
M 1159 2969 
Q 1341 3281 1617 3432 
Q 1894 3584 2278 3584 
Q 2916 3584 3314 3078 
Q 3713 2572 3713 1747 
Q 3713 922 3314 415 
Q 2916 -91 2278 -91 
Q 1894 -91 1617 61 
Q 1341 213 1159 525 
L 1159 0 
L 581 0 
L 581 4863 
L 1159 4863 
L 1159 2969 
z
" transform="scale(0.015625)"/>
        <path id="DejaVuSans-69" d="M 603 3500 
L 1178 3500 
L 1178 0 
L 603 0 
L 603 3500 
z
M 603 4863 
L 1178 4863 
L 1178 4134 
L 603 4134 
L 603 4863 
z
" transform="scale(0.015625)"/>
        <path id="DejaVuSans-6c" d="M 603 4863 
L 1178 4863 
L 1178 0 
L 603 0 
L 603 4863 
z
" transform="scale(0.015625)"/>
        <path id="DejaVuSans-74" d="M 1172 4494 
L 1172 3500 
L 2356 3500 
L 2356 3053 
L 1172 3053 
L 1172 1153 
Q 1172 725 1289 603 
Q 1406 481 1766 481 
L 2356 481 
L 2356 0 
L 1766 0 
Q 1100 0 847 248 
Q 594 497 594 1153 
L 594 3053 
L 172 3053 
L 172 3500 
L 594 3500 
L 594 4494 
L 1172 4494 
z
" transform="scale(0.015625)"/>
        <path id="DejaVuSans-63" d="M 3122 3366 
L 3122 2828 
Q 2878 2963 2633 3030 
Q 2388 3097 2138 3097 
Q 1578 3097 1268 2742 
Q 959 2388 959 1747 
Q 959 1106 1268 751 
Q 1578 397 2138 397 
Q 2388 397 2633 464 
Q 2878 531 3122 666 
L 3122 134 
Q 2881 22 2623 -34 
Q 2366 -91 2075 -91 
Q 1284 -91 818 406 
Q 353 903 353 1747 
Q 353 2603 823 3093 
Q 1294 3584 2113 3584 
Q 2378 3584 2631 3529 
Q 2884 3475 3122 3366 
z
" transform="scale(0.015625)"/>
        <path id="DejaVuSans-20" transform="scale(0.015625)"/>
        <path id="DejaVuSans-64" d="M 2906 2969 
L 2906 4863 
L 3481 4863 
L 3481 0 
L 2906 0 
L 2906 525 
Q 2725 213 2448 61 
Q 2172 -91 1784 -91 
Q 1150 -91 751 415 
Q 353 922 353 1747 
Q 353 2572 751 3078 
Q 1150 3584 1784 3584 
Q 2172 3584 2448 3432 
Q 2725 3281 2906 2969 
z
M 947 1747 
Q 947 1113 1208 752 
Q 1469 391 1925 391 
Q 2381 391 2643 752 
Q 2906 1113 2906 1747 
Q 2906 2381 2643 2742 
Q 2381 3103 1925 3103 
Q 1469 3103 1208 2742 
Q 947 2381 947 1747 
z
" transform="scale(0.015625)"/>
       </defs>
       <use xlink:href="#DejaVuSans-50"/>
       <use xlink:href="#DejaVuSans-72" x="58.552734"/>
       <use xlink:href="#DejaVuSans-6f" x="97.416016"/>
       <use xlink:href="#DejaVuSans-62" x="158.597656"/>
       <use xlink:href="#DejaVuSans-61" x="222.074219"/>
       <use xlink:href="#DejaVuSans-62" x="283.353516"/>
       <use xlink:href="#DejaVuSans-69" x="346.830078"/>
       <use xlink:href="#DejaVuSans-6c" x="374.613281"/>
       <use xlink:href="#DejaVuSans-69" x="402.396484"/>
       <use xlink:href="#DejaVuSans-73" x="430.179688"/>
       <use xlink:href="#DejaVuSans-74" x="482.279297"/>
       <use xlink:href="#DejaVuSans-69" x="521.488281"/>
       <use xlink:href="#DejaVuSans-63" x="549.271484"/>
       <use xlink:href="#DejaVuSans-20" x="604.251953"/>
       <use xlink:href="#DejaVuSans-6d" x="636.039062"/>
       <use xlink:href="#DejaVuSans-6f" x="733.451172"/>
       <use xlink:href="#DejaVuSans-64" x="794.632812"/>
       <use xlink:href="#DejaVuSans-65" x="858.109375"/>
       <use xlink:href="#DejaVuSans-6c" x="919.632812"/>
      </g>
     </g>
    </g>
    <g id="xtick_6">
     <g id="line2d_6">
      <g>
       <use xlink:href="#mc147c2c439" x="161.56465" y="67.958906" style="fill: #999999; stroke: #999999; stroke-width: 0.8"/>
      </g>
     </g>
     <g id="text_6">
      <!-- n-gram -->
      <g style="fill: #262626" transform="translate(165.427775 125.741719) rotate(-90) scale(0.14 -0.14)">
       <defs>
        <path id="DejaVuSans-2d" d="M 313 2009 
L 1997 2009 
L 1997 1497 
L 313 1497 
L 313 2009 
z
" transform="scale(0.015625)"/>
        <path id="DejaVuSans-67" d="M 2906 1791 
Q 2906 2416 2648 2759 
Q 2391 3103 1925 3103 
Q 1463 3103 1205 2759 
Q 947 2416 947 1791 
Q 947 1169 1205 825 
Q 1463 481 1925 481 
Q 2391 481 2648 825 
Q 2906 1169 2906 1791 
z
M 3481 434 
Q 3481 -459 3084 -895 
Q 2688 -1331 1869 -1331 
Q 1566 -1331 1297 -1286 
Q 1028 -1241 775 -1147 
L 775 -588 
Q 1028 -725 1275 -790 
Q 1522 -856 1778 -856 
Q 2344 -856 2625 -561 
Q 2906 -266 2906 331 
L 2906 616 
Q 2728 306 2450 153 
Q 2172 0 1784 0 
Q 1141 0 747 490 
Q 353 981 353 1791 
Q 353 2603 747 3093 
Q 1141 3584 1784 3584 
Q 2172 3584 2450 3431 
Q 2728 3278 2906 2969 
L 2906 3500 
L 3481 3500 
L 3481 434 
z
" transform="scale(0.015625)"/>
       </defs>
       <use xlink:href="#DejaVuSans-6e"/>
       <use xlink:href="#DejaVuSans-2d" x="63.378906"/>
       <use xlink:href="#DejaVuSans-67" x="99.462891"/>
       <use xlink:href="#DejaVuSans-72" x="162.939453"/>
       <use xlink:href="#DejaVuSans-61" x="204.052734"/>
       <use xlink:href="#DejaVuSans-6d" x="265.332031"/>
      </g>
     </g>
    </g>
    <g id="xtick_7">
     <g id="line2d_7">
      <g>
       <use xlink:href="#mc147c2c439" x="182.375839" y="67.958906" style="fill: #999999; stroke: #999999; stroke-width: 0.8"/>
      </g>
     </g>
     <g id="text_7">
      <!-- MLP/NN -->
      <g style="fill: #262626" transform="translate(186.238964 128.944219) rotate(-90) scale(0.14 -0.14)">
       <defs>
        <path id="DejaVuSans-4c" d="M 628 4666 
L 1259 4666 
L 1259 531 
L 3531 531 
L 3531 0 
L 628 0 
L 628 4666 
z
" transform="scale(0.015625)"/>
        <path id="DejaVuSans-2f" d="M 1625 4666 
L 2156 4666 
L 531 -594 
L 0 -594 
L 1625 4666 
z
" transform="scale(0.015625)"/>
       </defs>
       <use xlink:href="#DejaVuSans-4d"/>
       <use xlink:href="#DejaVuSans-4c" x="86.279297"/>
       <use xlink:href="#DejaVuSans-50" x="141.992188"/>
       <use xlink:href="#DejaVuSans-2f" x="202.294922"/>
       <use xlink:href="#DejaVuSans-4e" x="235.986328"/>
       <use xlink:href="#DejaVuSans-4e" x="310.791016"/>
      </g>
     </g>
    </g>
    <g id="xtick_8">
     <g id="line2d_8">
      <g>
       <use xlink:href="#mc147c2c439" x="203.187028" y="67.958906" style="fill: #999999; stroke: #999999; stroke-width: 0.8"/>
      </g>
     </g>
     <g id="text_8">
      <!-- Engineered features -->
      <g style="fill: #262626" transform="translate(207.050153 216.778906) rotate(-90) scale(0.14 -0.14)">
       <defs>
        <path id="DejaVuSans-45" d="M 628 4666 
L 3578 4666 
L 3578 4134 
L 1259 4134 
L 1259 2753 
L 3481 2753 
L 3481 2222 
L 1259 2222 
L 1259 531 
L 3634 531 
L 3634 0 
L 628 0 
L 628 4666 
z
" transform="scale(0.015625)"/>
        <path id="DejaVuSans-75" d="M 544 1381 
L 544 3500 
L 1119 3500 
L 1119 1403 
Q 1119 906 1312 657 
Q 1506 409 1894 409 
Q 2359 409 2629 706 
Q 2900 1003 2900 1516 
L 2900 3500 
L 3475 3500 
L 3475 0 
L 2900 0 
L 2900 538 
Q 2691 219 2414 64 
Q 2138 -91 1772 -91 
Q 1169 -91 856 284 
Q 544 659 544 1381 
z
M 1991 3584 
L 1991 3584 
z
" transform="scale(0.015625)"/>
       </defs>
       <use xlink:href="#DejaVuSans-45"/>
       <use xlink:href="#DejaVuSans-6e" x="63.183594"/>
       <use xlink:href="#DejaVuSans-67" x="126.5625"/>
       <use xlink:href="#DejaVuSans-69" x="190.039062"/>
       <use xlink:href="#DejaVuSans-6e" x="217.822266"/>
       <use xlink:href="#DejaVuSans-65" x="281.201172"/>
       <use xlink:href="#DejaVuSans-65" x="342.724609"/>
       <use xlink:href="#DejaVuSans-72" x="404.248047"/>
       <use xlink:href="#DejaVuSans-65" x="443.111328"/>
       <use xlink:href="#DejaVuSans-64" x="504.634766"/>
       <use xlink:href="#DejaVuSans-20" x="568.111328"/>
       <use xlink:href="#DejaVuSans-66" x="599.898438"/>
       <use xlink:href="#DejaVuSans-65" x="635.103516"/>
       <use xlink:href="#DejaVuSans-61" x="696.626953"/>
       <use xlink:href="#DejaVuSans-74" x="757.90625"/>
       <use xlink:href="#DejaVuSans-75" x="797.115234"/>
       <use xlink:href="#DejaVuSans-72" x="860.494141"/>
       <use xlink:href="#DejaVuSans-65" x="899.357422"/>
       <use xlink:href="#DejaVuSans-73" x="960.880859"/>
      </g>
     </g>
    </g>
    <g id="xtick_9">
     <g id="line2d_9">
      <g>
       <use xlink:href="#mc147c2c439" x="223.998217" y="67.958906" style="fill: #999999; stroke: #999999; stroke-width: 0.8"/>
      </g>
     </g>
     <g id="text_9">
      <!-- K-NN -->
      <g style="fill: #262626" transform="translate(227.861342 108.668281) rotate(-90) scale(0.14 -0.14)">
       <defs>
        <path id="DejaVuSans-4b" d="M 628 4666 
L 1259 4666 
L 1259 2694 
L 3353 4666 
L 4166 4666 
L 1850 2491 
L 4331 0 
L 3500 0 
L 1259 2247 
L 1259 0 
L 628 0 
L 628 4666 
z
" transform="scale(0.015625)"/>
       </defs>
       <use xlink:href="#DejaVuSans-4b"/>
       <use xlink:href="#DejaVuSans-2d" x="55.076172"/>
       <use xlink:href="#DejaVuSans-4e" x="91.160156"/>
       <use xlink:href="#DejaVuSans-4e" x="165.964844"/>
      </g>
     </g>
    </g>
    <g id="xtick_10">
     <g id="line2d_10">
      <g>
       <use xlink:href="#mc147c2c439" x="244.809406" y="67.958906" style="fill: #999999; stroke: #999999; stroke-width: 0.8"/>
      </g>
     </g>
     <g id="text_10">
      <!-- Trees/Random Forest -->
      <g style="fill: #262626" transform="translate(248.672531 221.475469) rotate(-90) scale(0.14 -0.14)">
       <defs>
        <path id="DejaVuSans-46" d="M 628 4666 
L 3309 4666 
L 3309 4134 
L 1259 4134 
L 1259 2759 
L 3109 2759 
L 3109 2228 
L 1259 2228 
L 1259 0 
L 628 0 
L 628 4666 
z
" transform="scale(0.015625)"/>
       </defs>
       <use xlink:href="#DejaVuSans-54"/>
       <use xlink:href="#DejaVuSans-72" x="46.333984"/>
       <use xlink:href="#DejaVuSans-65" x="85.197266"/>
       <use xlink:href="#DejaVuSans-65" x="146.720703"/>
       <use xlink:href="#DejaVuSans-73" x="208.244141"/>
       <use xlink:href="#DejaVuSans-2f" x="260.34375"/>
       <use xlink:href="#DejaVuSans-52" x="294.035156"/>
       <use xlink:href="#DejaVuSans-61" x="361.267578"/>
       <use xlink:href="#DejaVuSans-6e" x="422.546875"/>
       <use xlink:href="#DejaVuSans-64" x="485.925781"/>
       <use xlink:href="#DejaVuSans-6f" x="549.402344"/>
       <use xlink:href="#DejaVuSans-6d" x="610.583984"/>
       <use xlink:href="#DejaVuSans-20" x="707.996094"/>
       <use xlink:href="#DejaVuSans-46" x="739.783203"/>
       <use xlink:href="#DejaVuSans-6f" x="793.677734"/>
       <use xlink:href="#DejaVuSans-72" x="854.859375"/>
       <use xlink:href="#DejaVuSans-65" x="893.722656"/>
       <use xlink:href="#DejaVuSans-73" x="955.246094"/>
       <use xlink:href="#DejaVuSans-74" x="1007.345703"/>
      </g>
     </g>
    </g>
    <g id="xtick_11">
     <g id="line2d_11">
      <g>
       <use xlink:href="#mc147c2c439" x="265.620594" y="67.958906" style="fill: #999999; stroke: #999999; stroke-width: 0.8"/>
      </g>
     </g>
     <g id="text_11">
      <!-- word2vec/fastText -->
      <g style="fill: #262626" transform="translate(269.483719 202.199219) rotate(-90) scale(0.14 -0.14)">
       <defs>
        <path id="DejaVuSans-77" d="M 269 3500 
L 844 3500 
L 1563 769 
L 2278 3500 
L 2956 3500 
L 3675 769 
L 4391 3500 
L 4966 3500 
L 4050 0 
L 3372 0 
L 2619 2869 
L 1863 0 
L 1184 0 
L 269 3500 
z
" transform="scale(0.015625)"/>
        <path id="DejaVuSans-32" d="M 1228 531 
L 3431 531 
L 3431 0 
L 469 0 
L 469 531 
Q 828 903 1448 1529 
Q 2069 2156 2228 2338 
Q 2531 2678 2651 2914 
Q 2772 3150 2772 3378 
Q 2772 3750 2511 3984 
Q 2250 4219 1831 4219 
Q 1534 4219 1204 4116 
Q 875 4013 500 3803 
L 500 4441 
Q 881 4594 1212 4672 
Q 1544 4750 1819 4750 
Q 2544 4750 2975 4387 
Q 3406 4025 3406 3419 
Q 3406 3131 3298 2873 
Q 3191 2616 2906 2266 
Q 2828 2175 2409 1742 
Q 1991 1309 1228 531 
z
" transform="scale(0.015625)"/>
        <path id="DejaVuSans-76" d="M 191 3500 
L 800 3500 
L 1894 563 
L 2988 3500 
L 3597 3500 
L 2284 0 
L 1503 0 
L 191 3500 
z
" transform="scale(0.015625)"/>
        <path id="DejaVuSans-78" d="M 3513 3500 
L 2247 1797 
L 3578 0 
L 2900 0 
L 1881 1375 
L 863 0 
L 184 0 
L 1544 1831 
L 300 3500 
L 978 3500 
L 1906 2253 
L 2834 3500 
L 3513 3500 
z
" transform="scale(0.015625)"/>
       </defs>
       <use xlink:href="#DejaVuSans-77"/>
       <use xlink:href="#DejaVuSans-6f" x="81.787109"/>
       <use xlink:href="#DejaVuSans-72" x="142.96875"/>
       <use xlink:href="#DejaVuSans-64" x="182.332031"/>
       <use xlink:href="#DejaVuSans-32" x="245.808594"/>
       <use xlink:href="#DejaVuSans-76" x="309.431641"/>
       <use xlink:href="#DejaVuSans-65" x="368.611328"/>
       <use xlink:href="#DejaVuSans-63" x="430.134766"/>
       <use xlink:href="#DejaVuSans-2f" x="485.115234"/>
       <use xlink:href="#DejaVuSans-66" x="518.806641"/>
       <use xlink:href="#DejaVuSans-61" x="554.011719"/>
       <use xlink:href="#DejaVuSans-73" x="615.291016"/>
       <use xlink:href="#DejaVuSans-74" x="667.390625"/>
       <use xlink:href="#DejaVuSans-54" x="706.599609"/>
       <use xlink:href="#DejaVuSans-65" x="750.683594"/>
       <use xlink:href="#DejaVuSans-78" x="810.457031"/>
       <use xlink:href="#DejaVuSans-74" x="869.636719"/>
      </g>
     </g>
    </g>
    <g id="xtick_12">
     <g id="line2d_12">
      <g>
       <use xlink:href="#mc147c2c439" x="286.431783" y="67.958906" style="fill: #999999; stroke: #999999; stroke-width: 0.8"/>
      </g>
     </g>
     <g id="text_12">
      <!-- seq2seq -->
      <g style="fill: #262626" transform="translate(290.294908 133.457031) rotate(-90) scale(0.14 -0.14)">
       <defs>
        <path id="DejaVuSans-71" d="M 947 1747 
Q 947 1113 1208 752 
Q 1469 391 1925 391 
Q 2381 391 2643 752 
Q 2906 1113 2906 1747 
Q 2906 2381 2643 2742 
Q 2381 3103 1925 3103 
Q 1469 3103 1208 2742 
Q 947 2381 947 1747 
z
M 2906 525 
Q 2725 213 2448 61 
Q 2172 -91 1784 -91 
Q 1150 -91 751 415 
Q 353 922 353 1747 
Q 353 2572 751 3078 
Q 1150 3584 1784 3584 
Q 2172 3584 2448 3432 
Q 2725 3281 2906 2969 
L 2906 3500 
L 3481 3500 
L 3481 -1331 
L 2906 -1331 
L 2906 525 
z
" transform="scale(0.015625)"/>
       </defs>
       <use xlink:href="#DejaVuSans-73"/>
       <use xlink:href="#DejaVuSans-65" x="52.099609"/>
       <use xlink:href="#DejaVuSans-71" x="113.623047"/>
       <use xlink:href="#DejaVuSans-32" x="177.099609"/>
       <use xlink:href="#DejaVuSans-73" x="240.722656"/>
       <use xlink:href="#DejaVuSans-65" x="292.822266"/>
       <use xlink:href="#DejaVuSans-71" x="354.345703"/>
      </g>
     </g>
    </g>
    <g id="xtick_13">
     <g id="line2d_13">
      <g>
       <use xlink:href="#mc147c2c439" x="307.242972" y="67.958906" style="fill: #999999; stroke: #999999; stroke-width: 0.8"/>
      </g>
     </g>
     <g id="text_13">
      <!-- CRF -->
      <g style="fill: #262626" transform="translate(311.106097 102.514844) rotate(-90) scale(0.14 -0.14)">
       <use xlink:href="#DejaVuSans-43"/>
       <use xlink:href="#DejaVuSans-52" x="69.824219"/>
       <use xlink:href="#DejaVuSans-46" x="139.306641"/>
      </g>
     </g>
    </g>
    <g id="xtick_14">
     <g id="line2d_14">
      <g>
       <use xlink:href="#mc147c2c439" x="328.054161" y="67.958906" style="fill: #999999; stroke: #999999; stroke-width: 0.8"/>
      </g>
     </g>
     <g id="text_14">
      <!-- GAN -->
      <g style="fill: #262626" transform="translate(331.917286 105.857344) rotate(-90) scale(0.14 -0.14)">
       <defs>
        <path id="DejaVuSans-47" d="M 3809 666 
L 3809 1919 
L 2778 1919 
L 2778 2438 
L 4434 2438 
L 4434 434 
Q 4069 175 3628 42 
Q 3188 -91 2688 -91 
Q 1594 -91 976 548 
Q 359 1188 359 2328 
Q 359 3472 976 4111 
Q 1594 4750 2688 4750 
Q 3144 4750 3555 4637 
Q 3966 4525 4313 4306 
L 4313 3634 
Q 3963 3931 3569 4081 
Q 3175 4231 2741 4231 
Q 1884 4231 1454 3753 
Q 1025 3275 1025 2328 
Q 1025 1384 1454 906 
Q 1884 428 2741 428 
Q 3075 428 3337 486 
Q 3600 544 3809 666 
z
" transform="scale(0.015625)"/>
        <path id="DejaVuSans-41" d="M 2188 4044 
L 1331 1722 
L 3047 1722 
L 2188 4044 
z
M 1831 4666 
L 2547 4666 
L 4325 0 
L 3669 0 
L 3244 1197 
L 1141 1197 
L 716 0 
L 50 0 
L 1831 4666 
z
" transform="scale(0.015625)"/>
       </defs>
       <use xlink:href="#DejaVuSans-47"/>
       <use xlink:href="#DejaVuSans-41" x="77.490234"/>
       <use xlink:href="#DejaVuSans-4e" x="145.898438"/>
      </g>
     </g>
    </g>
    <g id="xtick_15">
     <g id="line2d_15">
      <g>
       <use xlink:href="#mc147c2c439" x="348.86535" y="67.958906" style="fill: #999999; stroke: #999999; stroke-width: 0.8"/>
      </g>
     </g>
     <g id="text_15">
      <!-- Clustering -->
      <g style="fill: #262626" transform="translate(352.728475 146.297656) rotate(-90) scale(0.14 -0.14)">
       <use xlink:href="#DejaVuSans-43"/>
       <use xlink:href="#DejaVuSans-6c" x="69.824219"/>
       <use xlink:href="#DejaVuSans-75" x="97.607422"/>
       <use xlink:href="#DejaVuSans-73" x="160.986328"/>
       <use xlink:href="#DejaVuSans-74" x="213.085938"/>
       <use xlink:href="#DejaVuSans-65" x="252.294922"/>
       <use xlink:href="#DejaVuSans-72" x="313.818359"/>
       <use xlink:href="#DejaVuSans-69" x="354.931641"/>
       <use xlink:href="#DejaVuSans-6e" x="382.714844"/>
       <use xlink:href="#DejaVuSans-67" x="446.09375"/>
      </g>
     </g>
    </g>
    <g id="xtick_16">
     <g id="line2d_16">
      <g>
       <use xlink:href="#mc147c2c439" x="369.676538" y="67.958906" style="fill: #999999; stroke: #999999; stroke-width: 0.8"/>
      </g>
     </g>
     <g id="text_16">
      <!-- Software -->
      <g style="fill: #262626" transform="translate(373.539663 136.668281) rotate(-90) scale(0.14 -0.14)">
       <use xlink:href="#DejaVuSans-53"/>
       <use xlink:href="#DejaVuSans-6f" x="63.476562"/>
       <use xlink:href="#DejaVuSans-66" x="124.658203"/>
       <use xlink:href="#DejaVuSans-74" x="158.113281"/>
       <use xlink:href="#DejaVuSans-77" x="197.322266"/>
       <use xlink:href="#DejaVuSans-61" x="279.109375"/>
       <use xlink:href="#DejaVuSans-72" x="340.388672"/>
       <use xlink:href="#DejaVuSans-65" x="379.251953"/>
      </g>
     </g>
    </g>
    <g id="xtick_17">
     <g id="line2d_17">
      <g>
       <use xlink:href="#mc147c2c439" x="390.487727" y="67.958906" style="fill: #999999; stroke: #999999; stroke-width: 0.8"/>
      </g>
     </g>
     <g id="text_17">
      <!-- Logistic Regression -->
      <g style="fill: #262626" transform="translate(394.350852 209.245156) rotate(-90) scale(0.14 -0.14)">
       <use xlink:href="#DejaVuSans-4c"/>
       <use xlink:href="#DejaVuSans-6f" x="53.962891"/>
       <use xlink:href="#DejaVuSans-67" x="115.144531"/>
       <use xlink:href="#DejaVuSans-69" x="178.621094"/>
       <use xlink:href="#DejaVuSans-73" x="206.404297"/>
       <use xlink:href="#DejaVuSans-74" x="258.503906"/>
       <use xlink:href="#DejaVuSans-69" x="297.712891"/>
       <use xlink:href="#DejaVuSans-63" x="325.496094"/>
       <use xlink:href="#DejaVuSans-20" x="380.476562"/>
       <use xlink:href="#DejaVuSans-52" x="412.263672"/>
       <use xlink:href="#DejaVuSans-65" x="477.246094"/>
       <use xlink:href="#DejaVuSans-67" x="538.769531"/>
       <use xlink:href="#DejaVuSans-72" x="602.246094"/>
       <use xlink:href="#DejaVuSans-65" x="641.109375"/>
       <use xlink:href="#DejaVuSans-73" x="702.632812"/>
       <use xlink:href="#DejaVuSans-73" x="754.732422"/>
       <use xlink:href="#DejaVuSans-69" x="806.832031"/>
       <use xlink:href="#DejaVuSans-6f" x="834.615234"/>
       <use xlink:href="#DejaVuSans-6e" x="895.796875"/>
      </g>
     </g>
    </g>
    <g id="xtick_18">
     <g id="line2d_18">
      <g>
       <use xlink:href="#mc147c2c439" x="411.298916" y="67.958906" style="fill: #999999; stroke: #999999; stroke-width: 0.8"/>
      </g>
     </g>
     <g id="text_18">
      <!-- Optimization -->
      <g style="fill: #262626" transform="translate(415.162041 164.515156) rotate(-90) scale(0.14 -0.14)">
       <defs>
        <path id="DejaVuSans-4f" d="M 2522 4238 
Q 1834 4238 1429 3725 
Q 1025 3213 1025 2328 
Q 1025 1447 1429 934 
Q 1834 422 2522 422 
Q 3209 422 3611 934 
Q 4013 1447 4013 2328 
Q 4013 3213 3611 3725 
Q 3209 4238 2522 4238 
z
M 2522 4750 
Q 3503 4750 4090 4092 
Q 4678 3434 4678 2328 
Q 4678 1225 4090 567 
Q 3503 -91 2522 -91 
Q 1538 -91 948 565 
Q 359 1222 359 2328 
Q 359 3434 948 4092 
Q 1538 4750 2522 4750 
z
" transform="scale(0.015625)"/>
        <path id="DejaVuSans-70" d="M 1159 525 
L 1159 -1331 
L 581 -1331 
L 581 3500 
L 1159 3500 
L 1159 2969 
Q 1341 3281 1617 3432 
Q 1894 3584 2278 3584 
Q 2916 3584 3314 3078 
Q 3713 2572 3713 1747 
Q 3713 922 3314 415 
Q 2916 -91 2278 -91 
Q 1894 -91 1617 61 
Q 1341 213 1159 525 
z
M 3116 1747 
Q 3116 2381 2855 2742 
Q 2594 3103 2138 3103 
Q 1681 3103 1420 2742 
Q 1159 2381 1159 1747 
Q 1159 1113 1420 752 
Q 1681 391 2138 391 
Q 2594 391 2855 752 
Q 3116 1113 3116 1747 
z
" transform="scale(0.015625)"/>
        <path id="DejaVuSans-7a" d="M 353 3500 
L 3084 3500 
L 3084 2975 
L 922 459 
L 3084 459 
L 3084 0 
L 275 0 
L 275 525 
L 2438 3041 
L 353 3041 
L 353 3500 
z
" transform="scale(0.015625)"/>
       </defs>
       <use xlink:href="#DejaVuSans-4f"/>
       <use xlink:href="#DejaVuSans-70" x="78.710938"/>
       <use xlink:href="#DejaVuSans-74" x="142.1875"/>
       <use xlink:href="#DejaVuSans-69" x="181.396484"/>
       <use xlink:href="#DejaVuSans-6d" x="209.179688"/>
       <use xlink:href="#DejaVuSans-69" x="306.591797"/>
       <use xlink:href="#DejaVuSans-7a" x="334.375"/>
       <use xlink:href="#DejaVuSans-61" x="386.865234"/>
       <use xlink:href="#DejaVuSans-74" x="448.144531"/>
       <use xlink:href="#DejaVuSans-69" x="487.353516"/>
       <use xlink:href="#DejaVuSans-6f" x="515.136719"/>
       <use xlink:href="#DejaVuSans-6e" x="576.318359"/>
      </g>
     </g>
    </g>
    <g id="xtick_19">
     <g id="line2d_19">
      <g>
       <use xlink:href="#mc147c2c439" x="432.110105" y="67.958906" style="fill: #999999; stroke: #999999; stroke-width: 0.8"/>
      </g>
     </g>
     <g id="text_19">
      <!-- Similarity -->
      <g style="fill: #262626" transform="translate(435.97323 141.150469) rotate(-90) scale(0.14 -0.14)">
       <defs>
        <path id="DejaVuSans-79" d="M 2059 -325 
Q 1816 -950 1584 -1140 
Q 1353 -1331 966 -1331 
L 506 -1331 
L 506 -850 
L 844 -850 
Q 1081 -850 1212 -737 
Q 1344 -625 1503 -206 
L 1606 56 
L 191 3500 
L 800 3500 
L 1894 763 
L 2988 3500 
L 3597 3500 
L 2059 -325 
z
" transform="scale(0.015625)"/>
       </defs>
       <use xlink:href="#DejaVuSans-53"/>
       <use xlink:href="#DejaVuSans-69" x="63.476562"/>
       <use xlink:href="#DejaVuSans-6d" x="91.259766"/>
       <use xlink:href="#DejaVuSans-69" x="188.671875"/>
       <use xlink:href="#DejaVuSans-6c" x="216.455078"/>
       <use xlink:href="#DejaVuSans-61" x="244.238281"/>
       <use xlink:href="#DejaVuSans-72" x="305.517578"/>
       <use xlink:href="#DejaVuSans-69" x="346.630859"/>
       <use xlink:href="#DejaVuSans-74" x="374.414062"/>
       <use xlink:href="#DejaVuSans-79" x="413.623047"/>
      </g>
     </g>
    </g>
    <g id="xtick_20">
     <g id="line2d_20">
      <g>
       <use xlink:href="#mc147c2c439" x="452.921294" y="67.958906" style="fill: #999999; stroke: #999999; stroke-width: 0.8"/>
      </g>
     </g>
     <g id="text_20">
      <!-- LDA -->
      <g style="fill: #262626" transform="translate(456.784419 102.871406) rotate(-90) scale(0.14 -0.14)">
       <defs>
        <path id="DejaVuSans-44" d="M 1259 4147 
L 1259 519 
L 2022 519 
Q 2988 519 3436 956 
Q 3884 1394 3884 2338 
Q 3884 3275 3436 3711 
Q 2988 4147 2022 4147 
L 1259 4147 
z
M 628 4666 
L 1925 4666 
Q 3281 4666 3915 4102 
Q 4550 3538 4550 2338 
Q 4550 1131 3912 565 
Q 3275 0 1925 0 
L 628 0 
L 628 4666 
z
" transform="scale(0.015625)"/>
       </defs>
       <use xlink:href="#DejaVuSans-4c"/>
       <use xlink:href="#DejaVuSans-44" x="55.712891"/>
       <use xlink:href="#DejaVuSans-41" x="130.964844"/>
      </g>
     </g>
    </g>
   </g>
   <g id="matplotlib.axis_2">
    <g id="ytick_1">
     <g id="line2d_21">
      <path d="M 32.015 67.958906 
L 478.415 67.958906 
" clip-path="url(#p6a620d910e)" style="fill: none; stroke: #eeeeee; stroke-width: 0.8; stroke-linecap: round"/>
     </g>
     <g id="text_21">
      <!-- 0 -->
      <g style="fill: #262626" transform="translate(16.1075 73.277813) scale(0.14 -0.14)">
       <defs>
        <path id="DejaVuSans-30" d="M 2034 4250 
Q 1547 4250 1301 3770 
Q 1056 3291 1056 2328 
Q 1056 1369 1301 889 
Q 1547 409 2034 409 
Q 2525 409 2770 889 
Q 3016 1369 3016 2328 
Q 3016 3291 2770 3770 
Q 2525 4250 2034 4250 
z
M 2034 4750 
Q 2819 4750 3233 4129 
Q 3647 3509 3647 2328 
Q 3647 1150 3233 529 
Q 2819 -91 2034 -91 
Q 1250 -91 836 529 
Q 422 1150 422 2328 
Q 422 3509 836 4129 
Q 1250 4750 2034 4750 
z
" transform="scale(0.015625)"/>
       </defs>
       <use xlink:href="#DejaVuSans-30"/>
      </g>
     </g>
    </g>
    <g id="ytick_2">
     <g id="line2d_22">
      <path d="M 32.015 40.238906 
L 478.415 40.238906 
" clip-path="url(#p6a620d910e)" style="fill: none; stroke: #eeeeee; stroke-width: 0.8; stroke-linecap: round"/>
     </g>
     <g id="text_22">
      <!-- 20 -->
      <g style="fill: #262626" transform="translate(7.2 45.557813) scale(0.14 -0.14)">
       <use xlink:href="#DejaVuSans-32"/>
       <use xlink:href="#DejaVuSans-30" x="63.623047"/>
      </g>
     </g>
    </g>
    <g id="ytick_3">
     <g id="line2d_23">
      <path d="M 32.015 12.518906 
L 478.415 12.518906 
" clip-path="url(#p6a620d910e)" style="fill: none; stroke: #eeeeee; stroke-width: 0.8; stroke-linecap: round"/>
     </g>
     <g id="text_23">
      <!-- 40 -->
      <g style="fill: #262626" transform="translate(7.2 17.837813) scale(0.14 -0.14)">
       <defs>
        <path id="DejaVuSans-34" d="M 2419 4116 
L 825 1625 
L 2419 1625 
L 2419 4116 
z
M 2253 4666 
L 3047 4666 
L 3047 1625 
L 3713 1625 
L 3713 1100 
L 3047 1100 
L 3047 0 
L 2419 0 
L 2419 1100 
L 313 1100 
L 313 1709 
L 2253 4666 
z
" transform="scale(0.015625)"/>
       </defs>
       <use xlink:href="#DejaVuSans-34"/>
       <use xlink:href="#DejaVuSans-30" x="63.623047"/>
      </g>
     </g>
    </g>
   </g>
   <g id="patch_3">
    <path d="M 52.305909 67.958906 
L 62.711503 67.958906 
L 62.711503 15.290906 
L 52.305909 15.290906 
z
" clip-path="url(#p6a620d910e)" style="fill: #de9c63; stroke: #ffffff; stroke-linejoin: miter"/>
   </g>
   <g id="patch_4">
    <path d="M 73.117098 67.958906 
L 83.522692 67.958906 
L 83.522692 15.290906 
L 73.117098 15.290906 
z
" clip-path="url(#p6a620d910e)" style="fill: #d89761; stroke: #ffffff; stroke-linejoin: miter"/>
   </g>
   <g id="patch_5">
    <path d="M 93.928287 67.958906 
L 104.333881 67.958906 
L 104.333881 15.290906 
L 93.928287 15.290906 
z
" clip-path="url(#p6a620d910e)" style="fill: #d39360; stroke: #ffffff; stroke-linejoin: miter"/>
   </g>
   <g id="patch_6">
    <path d="M 114.739476 67.958906 
L 125.14507 67.958906 
L 125.14507 29.150906 
L 114.739476 29.150906 
z
" clip-path="url(#p6a620d910e)" style="fill: #ce8e5e; stroke: #ffffff; stroke-linejoin: miter"/>
   </g>
   <g id="patch_7">
    <path d="M 135.550664 67.958906 
L 145.956259 67.958906 
L 145.956259 34.694906 
L 135.550664 34.694906 
z
" clip-path="url(#p6a620d910e)" style="fill: #c98a5d; stroke: #ffffff; stroke-linejoin: miter"/>
   </g>
   <g id="patch_8">
    <path d="M 156.361853 67.958906 
L 166.767448 67.958906 
L 166.767448 41.624906 
L 156.361853 41.624906 
z
" clip-path="url(#p6a620d910e)" style="fill: #c4865c; stroke: #ffffff; stroke-linejoin: miter"/>
   </g>
   <g id="patch_9">
    <path d="M 177.173042 67.958906 
L 187.578636 67.958906 
L 187.578636 43.010906 
L 177.173042 43.010906 
z
" clip-path="url(#p6a620d910e)" style="fill: #bd805a; stroke: #ffffff; stroke-linejoin: miter"/>
   </g>
   <g id="patch_10">
    <path d="M 197.984231 67.958906 
L 208.389825 67.958906 
L 208.389825 44.396906 
L 197.984231 44.396906 
z
" clip-path="url(#p6a620d910e)" style="fill: #b77b58; stroke: #ffffff; stroke-linejoin: miter"/>
   </g>
   <g id="patch_11">
    <path d="M 218.79542 67.958906 
L 229.201014 67.958906 
L 229.201014 45.782906 
L 218.79542 45.782906 
z
" clip-path="url(#p6a620d910e)" style="fill: #b07657; stroke: #ffffff; stroke-linejoin: miter"/>
   </g>
   <g id="patch_12">
    <path d="M 239.606608 67.958906 
L 250.012203 67.958906 
L 250.012203 49.940906 
L 239.606608 49.940906 
z
" clip-path="url(#p6a620d910e)" style="fill: #aa7155; stroke: #ffffff; stroke-linejoin: miter"/>
   </g>
   <g id="patch_13">
    <path d="M 260.417797 67.958906 
L 270.823392 67.958906 
L 270.823392 52.712906 
L 260.417797 52.712906 
z
" clip-path="url(#p6a620d910e)" style="fill: #a46c54; stroke: #ffffff; stroke-linejoin: miter"/>
   </g>
   <g id="patch_14">
    <path d="M 281.228986 67.958906 
L 291.63458 67.958906 
L 291.63458 55.484906 
L 281.228986 55.484906 
z
" clip-path="url(#p6a620d910e)" style="fill: #a0654c; stroke: #ffffff; stroke-linejoin: miter"/>
   </g>
   <g id="patch_15">
    <path d="M 302.040175 67.958906 
L 312.445769 67.958906 
L 312.445769 55.484906 
L 302.040175 55.484906 
z
" clip-path="url(#p6a620d910e)" style="fill: #9c5e44; stroke: #ffffff; stroke-linejoin: miter"/>
   </g>
   <g id="patch_16">
    <path d="M 322.851364 67.958906 
L 333.256958 67.958906 
L 333.256958 56.870906 
L 322.851364 56.870906 
z
" clip-path="url(#p6a620d910e)" style="fill: #98573c; stroke: #ffffff; stroke-linejoin: miter"/>
   </g>
   <g id="patch_17">
    <path d="M 343.662552 67.958906 
L 354.068147 67.958906 
L 354.068147 58.256906 
L 343.662552 58.256906 
z
" clip-path="url(#p6a620d910e)" style="fill: #945034; stroke: #ffffff; stroke-linejoin: miter"/>
   </g>
   <g id="patch_18">
    <path d="M 364.473741 67.958906 
L 374.879336 67.958906 
L 374.879336 59.642906 
L 364.473741 59.642906 
z
" clip-path="url(#p6a620d910e)" style="fill: #91492c; stroke: #ffffff; stroke-linejoin: miter"/>
   </g>
   <g id="patch_19">
    <path d="M 385.28493 67.958906 
L 395.690524 67.958906 
L 395.690524 61.028906 
L 385.28493 61.028906 
z
" clip-path="url(#p6a620d910e)" style="fill: #8e4323; stroke: #ffffff; stroke-linejoin: miter"/>
   </g>
   <g id="patch_20">
    <path d="M 406.096119 67.958906 
L 416.501713 67.958906 
L 416.501713 61.028906 
L 406.096119 61.028906 
z
" clip-path="url(#p6a620d910e)" style="fill: #8c3d1c; stroke: #ffffff; stroke-linejoin: miter"/>
   </g>
   <g id="patch_21">
    <path d="M 426.907308 67.958906 
L 437.312902 67.958906 
L 437.312902 62.414906 
L 426.907308 62.414906 
z
" clip-path="url(#p6a620d910e)" style="fill: #893713; stroke: #ffffff; stroke-linejoin: miter"/>
   </g>
   <g id="patch_22">
    <path d="M 447.718497 67.958906 
L 458.124091 67.958906 
L 458.124091 65.186906 
L 447.718497 65.186906 
z
" clip-path="url(#p6a620d910e)" style="fill: #87310c; stroke: #ffffff; stroke-linejoin: miter"/>
   </g>
   <g id="patch_23">
    <path d="M 32.015 67.958906 
L 32.015 12.518906 
" style="fill: none"/>
   </g>
   <g id="patch_24">
    <path d="M 478.415 67.958906 
L 478.415 12.518906 
" style="fill: none"/>
   </g>
   <g id="patch_25">
    <path d="M 32.015 67.958906 
L 478.415 67.958906 
" style="fill: none; stroke: #dddddd; stroke-width: 0.8; stroke-linejoin: miter; stroke-linecap: square"/>
   </g>
   <g id="patch_26">
    <path d="M 32.015 12.518906 
L 478.415 12.518906 
" style="fill: none"/>
   </g>
  </g>
 </g>
 <defs>
  <clipPath id="p6a620d910e">
   <rect x="32.015" y="12.518906" width="446.4" height="55.44"/>
  </clipPath>
 </defs>
</svg>
